<?xml version="1.0" encoding="UTF-8"?>
<svg id="Layer_2" data-name="Layer 2" xmlns="http://www.w3.org/2000/svg" viewBox="0 0 215.8 215.72">
  <defs>
    <style>
      .cls-1 {
        fill: #fff;
        stroke-width: 0px;
      }
    </style>
  </defs>
  <g id="CARD">
    <path class="cls-1" d="M114.25,215.72h-12.64c-.61-.12-1.22-.27-1.84-.36-5.88-.91-11.87-1.4-17.64-2.79C26.77,199.31-8.9,143.67,1.94,87.67c4.5-23.28,15.38-43.13,32.89-59.08C59.81,5.84,89.33-3.23,122.78,1.02c21.31,2.71,40.08,11.45,56.18,25.67,18.96,16.75,30.82,37.59,35.18,62.58.71,4.05,1.11,8.16,1.66,12.24v12.64c-.13.74-.29,1.48-.38,2.23-.51,3.89-.82,7.82-1.55,11.67-4.08,21.49-13.86,40.06-29.24,55.58-16.12,16.28-35.49,26.52-58.12,30.43-4.07.7-8.18,1.12-12.27,1.66ZM101.46,101.41v-31.72c-12.21-.85-24.27-1.68-36.35-2.52-2.66,11.27-4.14,22.62-4.44,34.23h40.79ZM114.35,101.38h40.84c-.31-11.56-1.77-22.84-4.39-33.93-12.2.77-24.27,1.53-36.44,2.3v31.63ZM47.38,101.38c1.55-12.22,3.08-24.27,4.58-36.11-8.07-2.03-16.34-4.15-24.64-6.14-.5-.12-1.49.53-1.82,1.08-3.81,6.42-6.73,13.24-8.83,20.4-1.98,6.74-3.31,13.6-3.66,20.77h34.37ZM202.87,114.28h-34.44c-1.55,12-3.07,23.83-4.58,35.54,8.54,2.01,17.31,4.08,26.23,6.19,7.48-12.78,11.8-26.66,12.79-41.73ZM202.89,101.38c-1.06-15.06-5.29-28.95-12.8-41.66-8.93,1.99-17.66,3.94-26.13,5.83,1.49,11.88,3,23.84,4.5,35.82h34.43ZM155.19,114.3h-40.78v31.01c12.17.84,24.17,1.66,36.3,2.5,2.64-10.93,4.06-22.07,4.47-33.51ZM60.66,114.28c.45,11.4,1.78,22.54,4.44,33.29,12.24-.76,24.26-1.51,36.39-2.27v-31.02h-40.83ZM51.94,149.56c-1.51-11.86-3-23.56-4.49-35.26H12.98c.98,14.45,4.96,27.82,12.04,40.26.27.48,1.38.84,1.98.71,2.46-.53,4.85-1.36,7.31-1.91,5.94-1.33,11.9-2.57,17.63-3.8ZM114.32,56.98c11.04-.66,21.85-1.31,33.21-1.98-2.42-5.48-4.42-10.49-6.82-15.29-3.83-7.64-8.63-14.62-15.31-20.12-3.26-2.69-6.81-4.87-11.07-5.95v43.35ZM101.47,201.32v-43.28c-10.95.66-21.75,1.3-32.8,1.97,4.43,12.35,9.8,23.61,18.87,32.71,3.9,3.91,8.36,7,13.93,8.6ZM68.57,54.75c11.31.75,22.05,1.46,32.9,2.18V13.21c-18.65,7.88-25.9,24.2-32.9,41.54ZM147.14,160.22c-11.16-.73-21.9-1.43-32.78-2.15v43.23c4.35-1.19,8.06-3.38,11.36-6.25,10.64-9.22,16.46-21.42,21.42-34.84ZM55.5,161.83c-7.28,1.54-14.71,3.1-22.52,4.75,11.1,13.75,24.27,23.68,40.23,29.93-3.36-5.61-6.93-10.91-9.81-16.55-2.92-5.72-5.17-11.78-7.9-18.13ZM142.52,196.3c15.87-6.01,28.96-15.71,39.95-29.25-7.81-1.72-15.15-3.33-22.59-4.97-4.15,12.46-9.55,23.92-17.36,34.22ZM143.04,19.49c7.65,10.21,12.97,21.57,17,33.81,7.5-1.58,14.78-3.11,22.45-4.72-10.96-13.38-23.84-23.06-39.45-29.09ZM55.98,52.92c3.97-12.23,9.35-23.33,16.8-33.43-15.43,6.02-28.2,15.49-38.93,28.53,7.53,1.67,14.7,3.25,22.13,4.9Z"/>
  </g>
</svg>